<svg xmlns="http://www.w3.org/2000/svg" viewBox="0 0 900 240" width="900" height="240" role="img" aria-label="AHMII LABS — AI, Web and Software Studio">
<title>AHMII LABS — AI, Web and Software Studio</title>
<style>
.shine{animation:sweep 5.5s ease-in-out infinite}
@keyframes sweep{0%{transform:translateX(0)}65%,100%{transform:translateX(1200px)}}
.p{animation:float 7s ease-in-out infinite;opacity:.4}
@keyframes float{0%,100%{transform:translateY(0);opacity:.12}50%{transform:translateY(-16px);opacity:.75}}
.pulse{animation:pulse 2s ease-in-out infinite}
@keyframes pulse{0%,100%{opacity:1}50%{opacity:.3}}
.spin{animation:spin 24s linear infinite;transform-box:fill-box;transform-origin:center}
.spinr{animation:spin 36s linear infinite reverse;transform-box:fill-box;transform-origin:center}
@keyframes spin{to{transform:rotate(360deg)}}
.card{animation:rise .7s ease-out both}
@keyframes rise{from{opacity:0;transform:translateY(10px)}to{opacity:1;transform:translateY(0)}}
@media (prefers-reduced-motion:reduce){*{animation:none!important}}
</style>
<defs>
<linearGradient id="bg" x1="0" y1="0" x2="1" y2="1"><stop offset="0" stop-color="#0A0A0A"/><stop offset=".5" stop-color="#1d1710"/><stop offset="1" stop-color="#0A0A0A"/></linearGradient>
<radialGradient id="glow" cx=".5" cy=".5" r=".5"><stop offset="0" stop-color="#C9A961" stop-opacity=".25"/><stop offset="1" stop-color="#C9A961" stop-opacity="0"/></radialGradient>
<linearGradient id="gold" x1="0" y1="0" x2="0" y2="1"><stop offset="0" stop-color="#F6E9BC"/><stop offset=".5" stop-color="#C9A961"/><stop offset="1" stop-color="#8a6d2b"/></linearGradient>
<linearGradient id="bd" x1="0" y1="0" x2="1" y2="0"><stop offset="0" stop-color="#C9A961"/><stop offset=".5" stop-color="#4a3c20"/><stop offset="1" stop-color="#C9A961"/></linearGradient>
<linearGradient id="ln" x1="0" y1="0" x2="1" y2="0"><stop offset="0" stop-color="#C9A961" stop-opacity="0"/><stop offset=".5" stop-color="#C9A961"/><stop offset="1" stop-color="#C9A961" stop-opacity="0"/></linearGradient>
<linearGradient id="shineg" x1="0" y1="0" x2="1" y2="0"><stop offset="0" stop-color="#fff6d8" stop-opacity="0"/><stop offset=".5" stop-color="#fff6d8" stop-opacity=".95"/><stop offset="1" stop-color="#fff6d8" stop-opacity="0"/></linearGradient>
<pattern id="grid" width="28" height="28" patternUnits="userSpaceOnUse"><path d="M28 0H0V28" fill="none" stroke="#C9A961" stroke-opacity=".09"/></pattern>
<radialGradient id="fade" cx=".5" cy=".5" r=".6"><stop offset="0" stop-color="#fff"/><stop offset="1" stop-color="#000"/></radialGradient>
<mask id="gm"><rect width="900" height="240" fill="url(#fade)"/></mask>
<filter id="blur" x="-20%" y="-50%" width="140%" height="200%"><feGaussianBlur stdDeviation="7"/></filter><clipPath id="wm"><path d="M26.2 -53.3 50.4 -0.4H37.1L21.7 -39ZM10.3 -5.4Q9.7 -3.9 10.1 -2.9Q10.4 -1.8 11.3 -1.3Q12.2 -0.7 13.1 -0.7H13.8V0H-2.1V-0.7Q-2.1 -0.7 -1.8 -0.7Q-1.4 -0.7 -1.4 -0.7Q0.3 -0.7 2.1 -1.8Q3.9 -2.9 5.1 -5.4ZM26.2 -53.3 26.5 -44.2 8.1 -0.2H2.7L21.9 -43.6Q22.1 -44 22.7 -45.2Q23.2 -46.5 23.9 -48Q24.5 -49.6 25 -51Q25.5 -52.5 25.5 -53.3ZM34 -17.6V-14.5H12.2V-17.6ZM35.1 -5.4H48.1Q49.3 -2.9 51.1 -1.8Q52.9 -0.7 54.6 -0.7Q54.6 -0.7 54.9 -0.7Q55.2 -0.7 55.2 -0.7V0H31.6V-0.7H32.3Q33.7 -0.7 34.8 -2Q36 -3.2 35.1 -5.4Z M119 -51.8V0H107.9V-51.8ZM83.9 -51.8V0H72.8V-51.8ZM108.6 -27.3V-24.2H83.2V-27.3ZM73.1 -5.4V0H67.2V-0.7Q67.2 -0.7 67.6 -0.7Q68.1 -0.7 68.1 -0.7Q70 -0.7 71.4 -2.1Q72.8 -3.5 72.8 -5.4ZM73.1 -46.4H72.8Q72.8 -48.3 71.4 -49.7Q70 -51.1 68.1 -51.1Q68.1 -51.1 67.6 -51.1Q67.2 -51.1 67.2 -51.1V-51.8H73.1ZM83.7 -5.4H83.9Q84 -3.5 85.4 -2.1Q86.8 -0.7 88.7 -0.7Q88.7 -0.7 89.1 -0.7Q89.6 -0.7 89.6 -0.7V0H83.7ZM83.7 -46.4V-51.8H89.6V-51.1Q89.6 -51.1 89.1 -51.1Q88.7 -51.1 88.7 -51.1Q86.8 -51.1 85.4 -49.7Q84 -48.3 83.9 -46.4ZM108.1 -5.4V0H102.2V-0.7Q102.3 -0.7 102.7 -0.7Q103.2 -0.7 103.2 -0.7Q105.1 -0.7 106.5 -2.1Q107.9 -3.5 107.9 -5.4ZM108.1 -46.4H107.9Q107.9 -48.3 106.5 -49.7Q105.1 -51.1 103.2 -51.1Q103.2 -51.1 102.7 -51.1Q102.3 -51.1 102.2 -51.1V-51.8H108.1ZM118.8 -5.4H119Q119.1 -3.5 120.5 -2.1Q121.8 -0.7 123.8 -0.7Q123.8 -0.7 124.2 -0.7Q124.7 -0.7 124.7 -0.7V0H118.8ZM118.8 -46.4V-51.8H124.7V-51.1Q124.7 -51.1 124.2 -51.1Q123.8 -51.1 123.8 -51.1Q121.8 -51.1 120.5 -49.7Q119.1 -48.3 119 -46.4Z M196.6 -52.8 197.1 -44.8 175.2 -6.7Q175.2 -6.7 174.4 -5.4Q173.7 -4.1 173 -2.2Q172.3 -0.3 172.3 1.5H171.6L168.7 -5ZM146.4 -5.4V0H138.2V-0.7Q138.2 -0.7 138.8 -0.7Q139.3 -0.7 139.3 -0.7Q141.3 -0.7 142.9 -2Q144.4 -3.2 144.7 -5.4ZM149.6 -4.2Q149.6 -4.1 149.6 -4.1Q149.6 -4 149.6 -3.8Q149.6 -2.7 150.5 -1.7Q151.3 -0.7 152.5 -0.7H153.7V0H149.1V-4.2ZM150.9 -52.8H151.6L154.2 -45.4L149.2 0H144.1ZM151.6 -52.8 175.8 -13.1 171.6 1.5 149.7 -35.3ZM197.2 -52.8 204.3 0H192.4L188.6 -34L196.6 -52.8ZM201.9 -5.4H203.5Q203.9 -3.2 205.4 -2Q207 -0.7 209 -0.7Q209 -0.7 209.5 -0.7Q210.1 -0.7 210.1 -0.7V0H201.9ZM191.9 -4.2H192.4V0H187.9V-0.7H189Q190.2 -0.7 191.1 -1.7Q191.9 -2.7 191.9 -3.8Q191.9 -4 191.9 -4.1Q191.9 -4.1 191.9 -4.2Z M240.3 -51.8V0H229.2V-51.8ZM229.4 -5.4V0H223.5V-0.7Q223.5 -0.7 223.9 -0.7Q224.4 -0.7 224.4 -0.7Q226.3 -0.7 227.7 -2.1Q229.1 -3.5 229.2 -5.4ZM229.4 -46.4H229.2Q229.1 -48.3 227.7 -49.7Q226.3 -51.1 224.4 -51.1Q224.4 -51.1 223.9 -51.1Q223.5 -51.1 223.5 -51.1V-51.8H229.4ZM240 -5.4H240.3Q240.3 -3.5 241.7 -2.1Q243.1 -0.7 245 -0.7Q245 -0.7 245.4 -0.7Q245.9 -0.7 246 -0.7V0H240ZM240 -46.4V-51.8H246V-51.1Q245.9 -51.1 245.4 -51.1Q245 -51.1 245 -51.1Q243.1 -51.1 241.7 -49.7Q240.3 -48.3 240.3 -46.4Z M279.9 -51.8V0H268.8V-51.8ZM269 -5.4V0H263.1V-0.7Q263.1 -0.7 263.6 -0.7Q264.1 -0.7 264.1 -0.7Q266 -0.7 267.4 -2.1Q268.7 -3.5 268.8 -5.4ZM269 -46.4H268.8Q268.7 -48.3 267.4 -49.7Q266 -51.1 264.1 -51.1Q264.1 -51.1 263.6 -51.1Q263.1 -51.1 263.1 -51.1V-51.8H269ZM279.7 -5.4H279.9Q280 -3.5 281.3 -2.1Q282.7 -0.7 284.6 -0.7Q284.6 -0.7 285.1 -0.7Q285.5 -0.7 285.6 -0.7V0H279.7ZM279.7 -46.4V-51.8H285.6V-51.1Q285.5 -51.1 285.1 -51.1Q284.6 -51.1 284.6 -51.1Q282.7 -51.1 281.3 -49.7Q280 -48.3 279.9 -46.4Z M349 -51.8V0H337.9V-51.8ZM368.6 -3.2 370.4 0H348.8V-3.2ZM374 -15.1 370.6 0H356.1L358.7 -3.2Q362.4 -3.2 365.3 -4.6Q368.1 -6.1 370.1 -8.8Q372.1 -11.5 373.3 -15.1ZM338.2 -5.4V0H332.2V-0.7Q332.2 -0.7 332.7 -0.7Q333.2 -0.7 333.2 -0.7Q335.1 -0.7 336.5 -2.1Q337.9 -3.5 337.9 -5.4ZM338.2 -46.4H337.9Q337.9 -48.3 336.5 -49.7Q335.1 -51.1 333.2 -51.1Q333.2 -51.1 332.7 -51.1Q332.2 -51.1 332.2 -51.1V-51.8H338.2ZM348.8 -46.4V-51.8H354.7V-51.1Q354.7 -51.1 354.2 -51.1Q353.8 -51.1 353.8 -51.1Q351.8 -51.1 350.5 -49.7Q349.1 -48.3 349 -46.4Z M412 -53.3 436.2 -0.4H422.9L407.5 -39ZM396.1 -5.4Q395.5 -3.9 395.9 -2.9Q396.2 -1.8 397.1 -1.3Q398 -0.7 398.9 -0.7H399.6V0H383.7V-0.7Q383.7 -0.7 384 -0.7Q384.4 -0.7 384.4 -0.7Q386.1 -0.7 387.9 -1.8Q389.7 -2.9 390.9 -5.4ZM412 -53.3 412.3 -44.2 393.9 -0.2H388.5L407.7 -43.6Q407.9 -44 408.5 -45.2Q409 -46.5 409.7 -48Q410.3 -49.6 410.8 -51Q411.3 -52.5 411.3 -53.3ZM419.8 -17.6V-14.5H398V-17.6ZM420.9 -5.4H433.9Q435.1 -2.9 436.9 -1.8Q438.7 -0.7 440.4 -0.7Q440.4 -0.7 440.7 -0.7Q441 -0.7 441 -0.7V0H417.4V-0.7H418.1Q419.5 -0.7 420.6 -2Q421.8 -3.2 420.9 -5.4Z M461.6 -51.8H474.4Q479.8 -51.8 484 -50.5Q488.3 -49.2 490.7 -46.5Q493.2 -43.7 493.2 -39.1Q493.2 -35.7 491.9 -33.4Q490.5 -31 488.5 -29.8Q486.4 -28.5 484.1 -28.2Q487.8 -27.9 490.8 -26.1Q493.8 -24.3 495.5 -21.4Q497.2 -18.4 497.2 -14.5Q497.2 -9.7 494.6 -6.5Q492 -3.3 487.3 -1.6Q482.6 0 476.4 0H469.1Q469.1 0 469.1 -0.8Q469.2 -1.7 469.2 -2.5Q469.2 -3.3 469.2 -3.3H473.2Q476.5 -3.3 479 -4.6Q481.6 -5.9 483 -8.5Q484.5 -11.2 484.5 -15.3Q484.5 -18.6 483.5 -20.9Q482.5 -23.2 480.8 -24.6Q479.2 -26.1 477 -26.7Q474.8 -27.4 472.3 -27.4V-28Q474 -28 475.6 -28.6Q477.3 -29.1 478.5 -30.3Q479.8 -31.5 480.6 -33.5Q481.3 -35.4 481.3 -38.2Q481.3 -41.9 480.2 -44.2Q479 -46.5 476.9 -47.6Q474.8 -48.6 471.9 -48.6H462.3Q462.3 -48.7 462.1 -49.5Q462 -50.2 461.8 -51Q461.6 -51.8 461.6 -51.8ZM469.7 -51.8V0H458.7V-51.8ZM458.9 -5.4V0H453L453 -0.7Q453.1 -0.7 453.5 -0.7Q453.8 -0.7 453.9 -0.7Q455.8 -0.7 457.2 -2.1Q458.6 -3.5 458.7 -5.4ZM458.9 -46.4H458.7Q458.6 -48.3 457.2 -49.7Q455.8 -51.1 453.9 -51.1Q453.8 -51.1 453.5 -51.1Q453.1 -51.1 453 -51.1L453 -51.8H458.9Z M531.2 -52.8Q532.7 -52.8 534.9 -52.7Q537.1 -52.5 539.4 -52.3Q541.7 -52 543.5 -51.8Q545.2 -51.5 545.9 -51.2L545 -41.2H544.3Q544.3 -45.1 541.4 -47.4Q538.5 -49.7 533.8 -49.7Q529.5 -49.7 526.9 -47.7Q524.3 -45.6 524.2 -42.6Q524 -40.4 525.5 -38.8Q527 -37.2 529.3 -35.7L543.4 -26.5Q546.8 -24.6 548.6 -21.5Q550.3 -18.4 550.1 -14.3Q549.8 -7.1 544.6 -3Q539.4 1 530.5 1Q527.2 1 524.2 0.5Q521.1 -0.1 518.7 -1.1Q516.3 -2.1 514.9 -3.5Q514.4 -5.1 514.4 -7.4Q514.5 -9.7 515.2 -12.1Q515.8 -14.4 516.7 -16H517.4Q517.1 -12.2 518.8 -9Q520.4 -5.8 523.7 -3.9Q526.9 -2 531.3 -2.1Q536.2 -2.2 538.9 -4.5Q541.6 -6.9 541.6 -10.4Q541.6 -12.7 540.2 -14.5Q538.8 -16.4 535.7 -18L522.8 -26.6Q518.8 -28.9 517 -32.4Q515.3 -35.8 515.7 -39.9Q516 -43.7 517.9 -46.6Q519.8 -49.6 523.2 -51.2Q526.6 -52.8 531.2 -52.8ZM546 -52.1 545.8 -50.5H537.1V-52.1Z" transform="translate(173.2 135)"/></clipPath></defs>
<rect width="900" height="240" rx="16" fill="url(#bg)"/><rect width="900" height="240" rx="16" fill="url(#grid)" mask="url(#gm)"/><ellipse cx="450.0" cy="120.0" rx="378.0" ry="148.8" fill="url(#glow)"/><rect x="1" y="1" width="898" height="238" rx="15" fill="none" stroke="url(#bd)" stroke-width="1.4"/><rect x="9" y="9" width="882" height="222" rx="10" fill="none" stroke="#C9A961" stroke-opacity=".22"/><path d="M22 38V22H38" fill="none" stroke="#C9A961" stroke-width="1.6" stroke-linecap="square"/><path d="M28 28l3 3" stroke="#C9A961" stroke-width="1.4"/><path d="M878 38V22H862" fill="none" stroke="#C9A961" stroke-width="1.6" stroke-linecap="square"/><path d="M872 28l-3 3" stroke="#C9A961" stroke-width="1.4"/><path d="M22 202V218H38" fill="none" stroke="#C9A961" stroke-width="1.6" stroke-linecap="square"/><path d="M28 212l3 -3" stroke="#C9A961" stroke-width="1.4"/><path d="M878 202V218H862" fill="none" stroke="#C9A961" stroke-width="1.6" stroke-linecap="square"/><path d="M872 212l-3 -3" stroke="#C9A961" stroke-width="1.4"/><circle class="p" cx="70" cy="170" r="1.6" fill="#EBD9A0" style="animation-delay:0s"/><circle class="p" cx="120" cy="70" r="1.2" fill="#EBD9A0" style="animation-delay:1.3s"/><circle class="p" cx="200" cy="190" r="1.4" fill="#EBD9A0" style="animation-delay:2.4s"/><circle class="p" cx="330" cy="40" r="1.1" fill="#EBD9A0" style="animation-delay:0.7s"/><circle class="p" cx="560" cy="198" r="1.5" fill="#EBD9A0" style="animation-delay:3.1s"/><circle class="p" cx="690" cy="48" r="1.2" fill="#EBD9A0" style="animation-delay:1.9s"/><circle class="p" cx="770" cy="176" r="1.8" fill="#EBD9A0" style="animation-delay:0.4s"/><circle class="p" cx="830" cy="84" r="1.3" fill="#EBD9A0" style="animation-delay:2.8s"/><circle class="p" cx="860" cy="150" r="1.1" fill="#EBD9A0" style="animation-delay:3.6s"/><circle class="p" cx="480" cy="34" r="1.0" fill="#EBD9A0" style="animation-delay:2.2s"/><circle class="p" cx="40" cy="110" r="1.3" fill="#EBD9A0" style="animation-delay:4.1s"/><circle class="p" cx="420" cy="206" r="1.1" fill="#EBD9A0" style="animation-delay:1.1s"/>
<path transform="translate(334.8 66)" d="M1 0V-7.7H6.7V-6.5H2.5V0ZM2.3 -3V-4.2H6.2V-3Z M17.1 0.1Q16.2 0.1 15.5 -0.2Q14.7 -0.5 14.2 -1Q13.6 -1.6 13.3 -2.3Q13 -3 13 -3.9Q13 -4.7 13.3 -5.4Q13.6 -6.1 14.2 -6.7Q14.7 -7.2 15.5 -7.5Q16.2 -7.8 17.1 -7.8Q18 -7.8 18.8 -7.5Q19.5 -7.2 20.1 -6.7Q20.7 -6.2 21 -5.4Q21.3 -4.7 21.3 -3.8Q21.3 -3 21 -2.3Q20.7 -1.5 20.1 -1Q19.5 -0.5 18.8 -0.2Q18 0.1 17.1 0.1ZM17.1 -1.1Q17.7 -1.1 18.2 -1.3Q18.7 -1.5 19.1 -1.9Q19.4 -2.3 19.6 -2.8Q19.8 -3.3 19.8 -3.9Q19.8 -4.4 19.6 -4.9Q19.4 -5.4 19.1 -5.8Q18.7 -6.2 18.2 -6.4Q17.7 -6.6 17.1 -6.6Q16.6 -6.6 16.1 -6.4Q15.6 -6.2 15.2 -5.8Q14.8 -5.4 14.6 -4.9Q14.4 -4.4 14.4 -3.9Q14.4 -3.3 14.6 -2.8Q14.8 -2.3 15.2 -1.9Q15.6 -1.5 16.1 -1.3Q16.6 -1.1 17.1 -1.1Z M31.6 0.1Q30 0.1 29.1 -0.8Q28.2 -1.7 28.2 -3.4V-7.7H29.7V-3.4Q29.7 -2.2 30.2 -1.7Q30.7 -1.1 31.6 -1.1Q32.6 -1.1 33.1 -1.7Q33.6 -2.2 33.6 -3.4V-7.7H35V-3.4Q35 -1.7 34.1 -0.8Q33.2 0.1 31.6 0.1Z M42.5 0V-7.7H43.7L48.5 -1.8H47.9V-7.7H49.3V0H48.1L43.3 -5.9H43.9V0Z M56.9 0V-7.7H60.3Q61.5 -7.7 62.5 -7.2Q63.4 -6.7 63.9 -5.9Q64.5 -5 64.5 -3.8Q64.5 -2.7 63.9 -1.8Q63.4 -1 62.5 -0.5Q61.5 0 60.3 0ZM58.3 -1.2H60.2Q61.1 -1.2 61.7 -1.5Q62.3 -1.9 62.7 -2.5Q63 -3.1 63 -3.8Q63 -4.7 62.7 -5.2Q62.3 -5.8 61.7 -6.2Q61.1 -6.5 60.2 -6.5H58.3Z M71.5 0V-7.7H77.1V-6.5H72.9V-1.2H77.3V0ZM72.8 -3.3V-4.5H76.6V-3.3Z M84.4 0V-7.7H87.7Q89 -7.7 89.9 -7.2Q90.9 -6.7 91.4 -5.9Q91.9 -5 91.9 -3.8Q91.9 -2.7 91.4 -1.8Q90.9 -1 89.9 -0.5Q89 0 87.7 0ZM85.8 -1.2H87.6Q88.5 -1.2 89.1 -1.5Q89.8 -1.9 90.1 -2.5Q90.5 -3.1 90.5 -3.8Q90.5 -4.7 90.1 -5.2Q89.8 -5.8 89.1 -6.2Q88.5 -6.5 87.6 -6.5H85.8Z M107.5 0V-7.7H111.1Q112.5 -7.7 113.2 -7.2Q113.9 -6.6 113.9 -5.7Q113.9 -5.1 113.6 -4.6Q113.3 -4.2 112.9 -4Q112.4 -3.7 111.8 -3.7L112 -4.1Q112.7 -4.1 113.2 -3.9Q113.7 -3.7 114 -3.2Q114.3 -2.8 114.3 -2.1Q114.3 -1.1 113.5 -0.6Q112.8 0 111.3 0ZM108.9 -1.1H111.2Q112 -1.1 112.4 -1.4Q112.9 -1.7 112.9 -2.2Q112.9 -2.8 112.4 -3.1Q112 -3.3 111.2 -3.3H108.8V-4.5H110.9Q111.7 -4.5 112.1 -4.7Q112.5 -5 112.5 -5.5Q112.5 -6 112.1 -6.3Q111.7 -6.6 110.9 -6.6H108.9Z M123.2 0V-3L123.6 -2.2L120.2 -7.7H121.7L124.4 -3.2H123.6L126.3 -7.7H127.7L124.3 -2.2L124.7 -3V0Z M142.1 0V-1L147 -7L147.2 -6.5H142.1V-7.7H148.5V-6.7L143.5 -0.7L143.3 -1.2H148.6V0Z M155.4 0V-7.7H161.1V-6.5H156.9V-1.2H161.2V0ZM156.8 -3.3V-4.5H160.6V-3.3Z M168.3 0V-7.7H171.5Q173 -7.7 173.9 -7Q174.8 -6.2 174.8 -5Q174.8 -4.1 174.4 -3.5Q174 -2.9 173.2 -2.6Q172.5 -2.2 171.5 -2.2H169.1L169.7 -2.9V0ZM173.3 0 171.4 -2.8H172.9L174.9 0ZM169.7 -2.7 169.1 -3.4H171.4Q172.4 -3.4 172.8 -3.8Q173.3 -4.2 173.3 -5Q173.3 -5.7 172.8 -6.1Q172.4 -6.5 171.4 -6.5H169.1L169.7 -7.2Z M185.5 0.1Q184.6 0.1 183.8 -0.2Q183 -0.5 182.5 -1Q181.9 -1.6 181.6 -2.3Q181.3 -3 181.3 -3.9Q181.3 -4.7 181.6 -5.4Q181.9 -6.1 182.5 -6.7Q183 -7.2 183.8 -7.5Q184.6 -7.8 185.5 -7.8Q186.4 -7.8 187.1 -7.5Q187.9 -7.2 188.4 -6.7Q189 -6.2 189.3 -5.4Q189.6 -4.7 189.6 -3.8Q189.6 -3 189.3 -2.3Q189 -1.5 188.4 -1Q187.9 -0.5 187.1 -0.2Q186.4 0.1 185.5 0.1ZM185.5 -1.1Q186 -1.1 186.5 -1.3Q187 -1.5 187.4 -1.9Q187.7 -2.3 188 -2.8Q188.2 -3.3 188.2 -3.9Q188.2 -4.4 188 -4.9Q187.8 -5.4 187.4 -5.8Q187 -6.2 186.5 -6.4Q186 -6.6 185.5 -6.6Q184.9 -6.6 184.4 -6.4Q183.9 -6.2 183.5 -5.8Q183.1 -5.4 182.9 -4.9Q182.7 -4.4 182.7 -3.9Q182.7 -3.3 182.9 -2.8Q183.1 -2.3 183.5 -1.9Q183.9 -1.5 184.4 -1.3Q184.9 -1.1 185.5 -1.1Z M196.6 0V-7.7H197.8L202.6 -1.8H202V-7.7H203.5V0H202.3L197.5 -5.9H198V0Z M211 0V-7.7H216.6V-6.5H212.5V-1.2H216.8V0ZM212.3 -3.3V-4.5H216.2V-3.3Z M223 0 226.2 -4.5 226.2 -3.4 223.1 -7.7H224.7L227 -4.5L226.4 -4.5L228.6 -7.7H230.2L227.1 -3.5V-4.5L230.4 0H228.7L226.3 -3.4L227 -3.4L224.6 0Z" fill="#C9A961" />
<g filter="url(#blur)" opacity=".55"><path fill="#C9A961" transform="translate(173.2 135)" d="M26.2 -53.3 50.4 -0.4H37.1L21.7 -39ZM10.3 -5.4Q9.7 -3.9 10.1 -2.9Q10.4 -1.8 11.3 -1.3Q12.2 -0.7 13.1 -0.7H13.8V0H-2.1V-0.7Q-2.1 -0.7 -1.8 -0.7Q-1.4 -0.7 -1.4 -0.7Q0.3 -0.7 2.1 -1.8Q3.9 -2.9 5.1 -5.4ZM26.2 -53.3 26.5 -44.2 8.1 -0.2H2.7L21.9 -43.6Q22.1 -44 22.7 -45.2Q23.2 -46.5 23.9 -48Q24.5 -49.6 25 -51Q25.5 -52.5 25.5 -53.3ZM34 -17.6V-14.5H12.2V-17.6ZM35.1 -5.4H48.1Q49.3 -2.9 51.1 -1.8Q52.9 -0.7 54.6 -0.7Q54.6 -0.7 54.9 -0.7Q55.2 -0.7 55.2 -0.7V0H31.6V-0.7H32.3Q33.7 -0.7 34.8 -2Q36 -3.2 35.1 -5.4Z M119 -51.8V0H107.9V-51.8ZM83.9 -51.8V0H72.8V-51.8ZM108.6 -27.3V-24.2H83.2V-27.3ZM73.1 -5.4V0H67.2V-0.7Q67.2 -0.7 67.6 -0.7Q68.1 -0.7 68.1 -0.7Q70 -0.7 71.4 -2.1Q72.8 -3.5 72.8 -5.4ZM73.1 -46.4H72.8Q72.8 -48.3 71.4 -49.7Q70 -51.1 68.1 -51.1Q68.1 -51.1 67.6 -51.1Q67.2 -51.1 67.2 -51.1V-51.8H73.1ZM83.7 -5.4H83.9Q84 -3.5 85.4 -2.1Q86.8 -0.7 88.7 -0.7Q88.7 -0.7 89.1 -0.7Q89.6 -0.7 89.6 -0.7V0H83.7ZM83.7 -46.4V-51.8H89.6V-51.1Q89.6 -51.1 89.1 -51.1Q88.7 -51.1 88.7 -51.1Q86.8 -51.1 85.4 -49.7Q84 -48.3 83.9 -46.4ZM108.1 -5.4V0H102.2V-0.7Q102.3 -0.7 102.7 -0.7Q103.2 -0.7 103.2 -0.7Q105.1 -0.7 106.5 -2.1Q107.9 -3.5 107.9 -5.4ZM108.1 -46.4H107.9Q107.9 -48.3 106.5 -49.7Q105.1 -51.1 103.2 -51.1Q103.2 -51.1 102.7 -51.1Q102.3 -51.1 102.2 -51.1V-51.8H108.1ZM118.8 -5.4H119Q119.1 -3.5 120.5 -2.1Q121.8 -0.7 123.8 -0.7Q123.8 -0.7 124.2 -0.7Q124.7 -0.7 124.7 -0.7V0H118.8ZM118.8 -46.4V-51.8H124.7V-51.1Q124.7 -51.1 124.2 -51.1Q123.8 -51.1 123.8 -51.1Q121.8 -51.1 120.5 -49.7Q119.1 -48.3 119 -46.4Z M196.6 -52.8 197.1 -44.8 175.2 -6.7Q175.2 -6.7 174.4 -5.4Q173.7 -4.1 173 -2.2Q172.3 -0.3 172.3 1.5H171.6L168.7 -5ZM146.4 -5.4V0H138.2V-0.7Q138.2 -0.7 138.8 -0.7Q139.3 -0.7 139.3 -0.7Q141.3 -0.7 142.9 -2Q144.4 -3.2 144.7 -5.4ZM149.6 -4.2Q149.6 -4.1 149.6 -4.1Q149.6 -4 149.6 -3.8Q149.6 -2.7 150.5 -1.7Q151.3 -0.7 152.5 -0.7H153.7V0H149.1V-4.2ZM150.9 -52.8H151.6L154.2 -45.4L149.2 0H144.1ZM151.6 -52.8 175.8 -13.1 171.6 1.5 149.7 -35.3ZM197.2 -52.8 204.3 0H192.4L188.6 -34L196.6 -52.8ZM201.9 -5.4H203.5Q203.9 -3.2 205.4 -2Q207 -0.7 209 -0.7Q209 -0.7 209.5 -0.7Q210.1 -0.7 210.1 -0.7V0H201.9ZM191.9 -4.2H192.4V0H187.9V-0.7H189Q190.2 -0.7 191.1 -1.7Q191.9 -2.7 191.9 -3.8Q191.9 -4 191.9 -4.1Q191.9 -4.1 191.9 -4.2Z M240.3 -51.8V0H229.2V-51.8ZM229.4 -5.4V0H223.5V-0.7Q223.5 -0.7 223.9 -0.7Q224.4 -0.7 224.4 -0.7Q226.3 -0.7 227.7 -2.1Q229.1 -3.5 229.2 -5.4ZM229.4 -46.4H229.2Q229.1 -48.3 227.7 -49.7Q226.3 -51.1 224.4 -51.1Q224.4 -51.1 223.9 -51.1Q223.5 -51.1 223.5 -51.1V-51.8H229.4ZM240 -5.4H240.3Q240.3 -3.5 241.7 -2.1Q243.1 -0.7 245 -0.7Q245 -0.7 245.4 -0.7Q245.9 -0.7 246 -0.7V0H240ZM240 -46.4V-51.8H246V-51.1Q245.9 -51.1 245.4 -51.1Q245 -51.1 245 -51.1Q243.1 -51.1 241.7 -49.7Q240.3 -48.3 240.3 -46.4Z M279.9 -51.8V0H268.8V-51.8ZM269 -5.4V0H263.1V-0.7Q263.1 -0.7 263.6 -0.7Q264.1 -0.7 264.1 -0.7Q266 -0.7 267.4 -2.1Q268.7 -3.5 268.8 -5.4ZM269 -46.4H268.8Q268.7 -48.3 267.4 -49.7Q266 -51.1 264.1 -51.1Q264.1 -51.1 263.6 -51.1Q263.1 -51.1 263.1 -51.1V-51.8H269ZM279.7 -5.4H279.9Q280 -3.5 281.3 -2.1Q282.7 -0.7 284.6 -0.7Q284.6 -0.7 285.1 -0.7Q285.5 -0.7 285.6 -0.7V0H279.7ZM279.7 -46.4V-51.8H285.6V-51.1Q285.5 -51.1 285.1 -51.1Q284.6 -51.1 284.6 -51.1Q282.7 -51.1 281.3 -49.7Q280 -48.3 279.9 -46.4Z M349 -51.8V0H337.9V-51.8ZM368.6 -3.2 370.4 0H348.8V-3.2ZM374 -15.1 370.6 0H356.1L358.7 -3.2Q362.4 -3.2 365.3 -4.6Q368.1 -6.1 370.1 -8.8Q372.1 -11.5 373.3 -15.1ZM338.2 -5.4V0H332.2V-0.7Q332.2 -0.7 332.7 -0.7Q333.2 -0.7 333.2 -0.7Q335.1 -0.7 336.5 -2.1Q337.9 -3.5 337.9 -5.4ZM338.2 -46.4H337.9Q337.9 -48.3 336.5 -49.7Q335.1 -51.1 333.2 -51.1Q333.2 -51.1 332.7 -51.1Q332.2 -51.1 332.2 -51.1V-51.8H338.2ZM348.8 -46.4V-51.8H354.7V-51.1Q354.7 -51.1 354.2 -51.1Q353.8 -51.1 353.8 -51.1Q351.8 -51.1 350.5 -49.7Q349.1 -48.3 349 -46.4Z M412 -53.3 436.2 -0.4H422.9L407.5 -39ZM396.1 -5.4Q395.5 -3.9 395.9 -2.9Q396.2 -1.8 397.1 -1.3Q398 -0.7 398.9 -0.7H399.6V0H383.7V-0.7Q383.7 -0.7 384 -0.7Q384.4 -0.7 384.4 -0.7Q386.1 -0.7 387.9 -1.8Q389.7 -2.9 390.9 -5.4ZM412 -53.3 412.3 -44.2 393.9 -0.2H388.5L407.7 -43.6Q407.9 -44 408.5 -45.2Q409 -46.5 409.7 -48Q410.3 -49.6 410.8 -51Q411.3 -52.5 411.3 -53.3ZM419.8 -17.6V-14.5H398V-17.6ZM420.9 -5.4H433.9Q435.1 -2.9 436.9 -1.8Q438.7 -0.7 440.4 -0.7Q440.4 -0.7 440.7 -0.7Q441 -0.7 441 -0.7V0H417.4V-0.7H418.1Q419.5 -0.7 420.6 -2Q421.8 -3.2 420.9 -5.4Z M461.6 -51.8H474.4Q479.8 -51.8 484 -50.5Q488.3 -49.2 490.7 -46.5Q493.2 -43.7 493.2 -39.1Q493.2 -35.7 491.9 -33.4Q490.5 -31 488.5 -29.8Q486.4 -28.5 484.1 -28.2Q487.8 -27.9 490.8 -26.1Q493.8 -24.3 495.5 -21.4Q497.2 -18.4 497.2 -14.5Q497.2 -9.7 494.6 -6.5Q492 -3.3 487.3 -1.6Q482.6 0 476.4 0H469.1Q469.1 0 469.1 -0.8Q469.2 -1.7 469.2 -2.5Q469.2 -3.3 469.2 -3.3H473.2Q476.5 -3.3 479 -4.6Q481.6 -5.9 483 -8.5Q484.5 -11.2 484.5 -15.3Q484.5 -18.6 483.5 -20.9Q482.5 -23.2 480.8 -24.6Q479.2 -26.1 477 -26.7Q474.8 -27.4 472.3 -27.4V-28Q474 -28 475.6 -28.6Q477.3 -29.1 478.5 -30.3Q479.8 -31.5 480.6 -33.5Q481.3 -35.4 481.3 -38.2Q481.3 -41.9 480.2 -44.2Q479 -46.5 476.9 -47.6Q474.8 -48.6 471.9 -48.6H462.3Q462.3 -48.7 462.1 -49.5Q462 -50.2 461.8 -51Q461.6 -51.8 461.6 -51.8ZM469.7 -51.8V0H458.7V-51.8ZM458.9 -5.4V0H453L453 -0.7Q453.1 -0.7 453.5 -0.7Q453.8 -0.7 453.9 -0.7Q455.8 -0.7 457.2 -2.1Q458.6 -3.5 458.7 -5.4ZM458.9 -46.4H458.7Q458.6 -48.3 457.2 -49.7Q455.8 -51.1 453.9 -51.1Q453.8 -51.1 453.5 -51.1Q453.1 -51.1 453 -51.1L453 -51.8H458.9Z M531.2 -52.8Q532.7 -52.8 534.9 -52.7Q537.1 -52.5 539.4 -52.3Q541.7 -52 543.5 -51.8Q545.2 -51.5 545.9 -51.2L545 -41.2H544.3Q544.3 -45.1 541.4 -47.4Q538.5 -49.7 533.8 -49.7Q529.5 -49.7 526.9 -47.7Q524.3 -45.6 524.2 -42.6Q524 -40.4 525.5 -38.8Q527 -37.2 529.3 -35.7L543.4 -26.5Q546.8 -24.6 548.6 -21.5Q550.3 -18.4 550.1 -14.3Q549.8 -7.1 544.6 -3Q539.4 1 530.5 1Q527.2 1 524.2 0.5Q521.1 -0.1 518.7 -1.1Q516.3 -2.1 514.9 -3.5Q514.4 -5.1 514.4 -7.4Q514.5 -9.7 515.2 -12.1Q515.8 -14.4 516.7 -16H517.4Q517.1 -12.2 518.8 -9Q520.4 -5.8 523.7 -3.9Q526.9 -2 531.3 -2.1Q536.2 -2.2 538.9 -4.5Q541.6 -6.9 541.6 -10.4Q541.6 -12.7 540.2 -14.5Q538.8 -16.4 535.7 -18L522.8 -26.6Q518.8 -28.9 517 -32.4Q515.3 -35.8 515.7 -39.9Q516 -43.7 517.9 -46.6Q519.8 -49.6 523.2 -51.2Q526.6 -52.8 531.2 -52.8ZM546 -52.1 545.8 -50.5H537.1V-52.1Z" /></g>
<path fill="url(#gold)" transform="translate(173.2 135)" d="M26.2 -53.3 50.4 -0.4H37.1L21.7 -39ZM10.3 -5.4Q9.7 -3.9 10.1 -2.9Q10.4 -1.8 11.3 -1.3Q12.2 -0.7 13.1 -0.7H13.8V0H-2.1V-0.7Q-2.1 -0.7 -1.8 -0.7Q-1.4 -0.7 -1.4 -0.7Q0.3 -0.7 2.1 -1.8Q3.9 -2.9 5.1 -5.4ZM26.2 -53.3 26.5 -44.2 8.1 -0.2H2.7L21.9 -43.6Q22.1 -44 22.7 -45.2Q23.2 -46.5 23.9 -48Q24.5 -49.6 25 -51Q25.5 -52.5 25.5 -53.3ZM34 -17.6V-14.5H12.2V-17.6ZM35.1 -5.4H48.1Q49.3 -2.9 51.1 -1.8Q52.9 -0.7 54.6 -0.7Q54.6 -0.7 54.9 -0.7Q55.2 -0.7 55.2 -0.7V0H31.6V-0.7H32.3Q33.7 -0.7 34.8 -2Q36 -3.2 35.1 -5.4Z M119 -51.8V0H107.9V-51.8ZM83.9 -51.8V0H72.8V-51.8ZM108.6 -27.3V-24.2H83.2V-27.3ZM73.1 -5.4V0H67.2V-0.7Q67.2 -0.7 67.6 -0.7Q68.1 -0.7 68.1 -0.7Q70 -0.7 71.4 -2.1Q72.8 -3.5 72.8 -5.4ZM73.1 -46.4H72.8Q72.8 -48.3 71.4 -49.7Q70 -51.1 68.1 -51.1Q68.1 -51.1 67.6 -51.1Q67.2 -51.1 67.2 -51.1V-51.8H73.1ZM83.7 -5.4H83.9Q84 -3.5 85.4 -2.1Q86.8 -0.7 88.7 -0.7Q88.7 -0.7 89.1 -0.7Q89.6 -0.7 89.6 -0.7V0H83.7ZM83.7 -46.4V-51.8H89.6V-51.1Q89.6 -51.1 89.1 -51.1Q88.7 -51.1 88.7 -51.1Q86.8 -51.1 85.4 -49.7Q84 -48.3 83.9 -46.4ZM108.1 -5.4V0H102.2V-0.7Q102.3 -0.7 102.7 -0.7Q103.2 -0.7 103.2 -0.7Q105.1 -0.7 106.5 -2.1Q107.9 -3.5 107.9 -5.4ZM108.1 -46.4H107.9Q107.9 -48.3 106.5 -49.7Q105.1 -51.1 103.2 -51.1Q103.2 -51.1 102.7 -51.1Q102.3 -51.1 102.2 -51.1V-51.8H108.1ZM118.8 -5.4H119Q119.1 -3.5 120.5 -2.1Q121.8 -0.7 123.8 -0.7Q123.8 -0.7 124.2 -0.7Q124.7 -0.7 124.7 -0.7V0H118.8ZM118.8 -46.4V-51.8H124.7V-51.1Q124.7 -51.1 124.2 -51.1Q123.8 -51.1 123.8 -51.1Q121.8 -51.1 120.5 -49.7Q119.1 -48.3 119 -46.4Z M196.6 -52.8 197.1 -44.8 175.2 -6.7Q175.2 -6.7 174.4 -5.4Q173.7 -4.1 173 -2.2Q172.3 -0.3 172.3 1.5H171.6L168.7 -5ZM146.4 -5.4V0H138.2V-0.7Q138.2 -0.7 138.8 -0.7Q139.3 -0.7 139.3 -0.7Q141.3 -0.7 142.9 -2Q144.4 -3.2 144.7 -5.4ZM149.6 -4.2Q149.6 -4.1 149.6 -4.1Q149.6 -4 149.6 -3.8Q149.6 -2.7 150.5 -1.7Q151.3 -0.7 152.5 -0.7H153.7V0H149.1V-4.2ZM150.9 -52.8H151.6L154.2 -45.4L149.2 0H144.1ZM151.6 -52.8 175.8 -13.1 171.6 1.5 149.7 -35.3ZM197.2 -52.8 204.3 0H192.4L188.6 -34L196.6 -52.8ZM201.9 -5.4H203.5Q203.9 -3.2 205.4 -2Q207 -0.7 209 -0.7Q209 -0.7 209.5 -0.7Q210.1 -0.7 210.1 -0.7V0H201.9ZM191.9 -4.2H192.4V0H187.9V-0.7H189Q190.2 -0.7 191.1 -1.7Q191.9 -2.7 191.9 -3.8Q191.9 -4 191.9 -4.1Q191.9 -4.1 191.9 -4.2Z M240.3 -51.8V0H229.2V-51.8ZM229.4 -5.4V0H223.5V-0.7Q223.5 -0.7 223.9 -0.7Q224.4 -0.7 224.4 -0.7Q226.3 -0.7 227.7 -2.1Q229.1 -3.5 229.2 -5.4ZM229.4 -46.4H229.2Q229.1 -48.3 227.7 -49.7Q226.3 -51.1 224.4 -51.1Q224.4 -51.1 223.9 -51.1Q223.5 -51.1 223.5 -51.1V-51.8H229.4ZM240 -5.4H240.3Q240.3 -3.5 241.7 -2.1Q243.1 -0.7 245 -0.7Q245 -0.7 245.4 -0.7Q245.9 -0.7 246 -0.7V0H240ZM240 -46.4V-51.8H246V-51.1Q245.9 -51.1 245.4 -51.1Q245 -51.1 245 -51.1Q243.1 -51.1 241.7 -49.7Q240.3 -48.3 240.3 -46.4Z M279.9 -51.8V0H268.8V-51.8ZM269 -5.4V0H263.1V-0.7Q263.1 -0.7 263.6 -0.7Q264.1 -0.7 264.1 -0.7Q266 -0.7 267.4 -2.1Q268.7 -3.5 268.8 -5.4ZM269 -46.4H268.8Q268.7 -48.3 267.4 -49.7Q266 -51.1 264.1 -51.1Q264.1 -51.1 263.6 -51.1Q263.1 -51.1 263.1 -51.1V-51.8H269ZM279.7 -5.4H279.9Q280 -3.5 281.3 -2.1Q282.7 -0.7 284.6 -0.7Q284.6 -0.7 285.1 -0.7Q285.5 -0.7 285.6 -0.7V0H279.7ZM279.7 -46.4V-51.8H285.6V-51.1Q285.5 -51.1 285.1 -51.1Q284.6 -51.1 284.6 -51.1Q282.7 -51.1 281.3 -49.7Q280 -48.3 279.9 -46.4Z M349 -51.8V0H337.9V-51.8ZM368.6 -3.2 370.4 0H348.8V-3.2ZM374 -15.1 370.6 0H356.1L358.7 -3.2Q362.4 -3.2 365.3 -4.6Q368.1 -6.1 370.1 -8.8Q372.1 -11.5 373.3 -15.1ZM338.2 -5.4V0H332.2V-0.7Q332.2 -0.7 332.7 -0.7Q333.2 -0.7 333.2 -0.7Q335.1 -0.7 336.5 -2.1Q337.9 -3.5 337.9 -5.4ZM338.2 -46.4H337.9Q337.9 -48.3 336.5 -49.7Q335.1 -51.1 333.2 -51.1Q333.2 -51.1 332.7 -51.1Q332.2 -51.1 332.2 -51.1V-51.8H338.2ZM348.8 -46.4V-51.8H354.7V-51.1Q354.7 -51.1 354.2 -51.1Q353.8 -51.1 353.8 -51.1Q351.8 -51.1 350.5 -49.7Q349.1 -48.3 349 -46.4Z M412 -53.3 436.2 -0.4H422.9L407.5 -39ZM396.1 -5.4Q395.5 -3.9 395.9 -2.9Q396.2 -1.8 397.1 -1.3Q398 -0.7 398.9 -0.7H399.6V0H383.7V-0.7Q383.7 -0.7 384 -0.7Q384.4 -0.7 384.4 -0.7Q386.1 -0.7 387.9 -1.8Q389.7 -2.9 390.9 -5.4ZM412 -53.3 412.3 -44.2 393.9 -0.2H388.5L407.7 -43.6Q407.9 -44 408.5 -45.2Q409 -46.5 409.7 -48Q410.3 -49.6 410.8 -51Q411.3 -52.5 411.3 -53.3ZM419.8 -17.6V-14.5H398V-17.6ZM420.9 -5.4H433.9Q435.1 -2.9 436.9 -1.8Q438.7 -0.7 440.4 -0.7Q440.4 -0.7 440.7 -0.7Q441 -0.7 441 -0.7V0H417.4V-0.7H418.1Q419.5 -0.7 420.6 -2Q421.8 -3.2 420.9 -5.4Z M461.6 -51.8H474.4Q479.8 -51.8 484 -50.5Q488.3 -49.2 490.7 -46.5Q493.2 -43.7 493.2 -39.1Q493.2 -35.7 491.9 -33.4Q490.5 -31 488.5 -29.8Q486.4 -28.5 484.1 -28.2Q487.8 -27.9 490.8 -26.1Q493.8 -24.3 495.5 -21.4Q497.2 -18.4 497.2 -14.5Q497.2 -9.7 494.6 -6.5Q492 -3.3 487.3 -1.6Q482.6 0 476.4 0H469.1Q469.1 0 469.1 -0.8Q469.2 -1.7 469.2 -2.5Q469.2 -3.3 469.2 -3.3H473.2Q476.5 -3.3 479 -4.6Q481.6 -5.9 483 -8.5Q484.5 -11.2 484.5 -15.3Q484.5 -18.6 483.5 -20.9Q482.5 -23.2 480.8 -24.6Q479.2 -26.1 477 -26.7Q474.8 -27.4 472.3 -27.4V-28Q474 -28 475.6 -28.6Q477.3 -29.1 478.5 -30.3Q479.8 -31.5 480.6 -33.5Q481.3 -35.4 481.3 -38.2Q481.3 -41.9 480.2 -44.2Q479 -46.5 476.9 -47.6Q474.8 -48.6 471.9 -48.6H462.3Q462.3 -48.7 462.1 -49.5Q462 -50.2 461.8 -51Q461.6 -51.8 461.6 -51.8ZM469.7 -51.8V0H458.7V-51.8ZM458.9 -5.4V0H453L453 -0.7Q453.1 -0.7 453.5 -0.7Q453.8 -0.7 453.9 -0.7Q455.8 -0.7 457.2 -2.1Q458.6 -3.5 458.7 -5.4ZM458.9 -46.4H458.7Q458.6 -48.3 457.2 -49.7Q455.8 -51.1 453.9 -51.1Q453.8 -51.1 453.5 -51.1Q453.1 -51.1 453 -51.1L453 -51.8H458.9Z M531.2 -52.8Q532.7 -52.8 534.9 -52.7Q537.1 -52.5 539.4 -52.3Q541.7 -52 543.5 -51.8Q545.2 -51.5 545.9 -51.2L545 -41.2H544.3Q544.3 -45.1 541.4 -47.4Q538.5 -49.7 533.8 -49.7Q529.5 -49.7 526.9 -47.7Q524.3 -45.6 524.2 -42.6Q524 -40.4 525.5 -38.8Q527 -37.2 529.3 -35.7L543.4 -26.5Q546.8 -24.6 548.6 -21.5Q550.3 -18.4 550.1 -14.3Q549.8 -7.1 544.6 -3Q539.4 1 530.5 1Q527.2 1 524.2 0.5Q521.1 -0.1 518.7 -1.1Q516.3 -2.1 514.9 -3.5Q514.4 -5.1 514.4 -7.4Q514.5 -9.7 515.2 -12.1Q515.8 -14.4 516.7 -16H517.4Q517.1 -12.2 518.8 -9Q520.4 -5.8 523.7 -3.9Q526.9 -2 531.3 -2.1Q536.2 -2.2 538.9 -4.5Q541.6 -6.9 541.6 -10.4Q541.6 -12.7 540.2 -14.5Q538.8 -16.4 535.7 -18L522.8 -26.6Q518.8 -28.9 517 -32.4Q515.3 -35.8 515.7 -39.9Q516 -43.7 517.9 -46.6Q519.8 -49.6 523.2 -51.2Q526.6 -52.8 531.2 -52.8ZM546 -52.1 545.8 -50.5H537.1V-52.1Z" />
<g clip-path="url(#wm)"><g transform="skewX(-22)"><rect class="shine" x="-260" y="60" width="150" height="100" fill="url(#shineg)"/></g></g>
<rect x="300.0" y="157.4" width="140" height="1.2" fill="url(#ln)"/><rect x="460.0" y="157.4" width="140" height="1.2" fill="url(#ln)"/>
<path d="M450.0 152l6 6-6 6-6-6z" fill="#C9A961"/>
<path transform="translate(210.1 188)" d="M-0.1 0 4.6 -10.5H6.6L11.3 0H9.3L5.2 -9.5H6L1.9 0ZM2.1 -2.4 2.6 -4H8.3L8.8 -2.4Z M20.2 0V-10.5H22.1V0Z M56.4 -2.9Q55.9 -2.9 55.6 -3.3Q55.2 -3.6 55.2 -4.2Q55.2 -4.7 55.6 -5.1Q55.9 -5.4 56.4 -5.4Q57 -5.4 57.3 -5.1Q57.7 -4.7 57.7 -4.2Q57.7 -3.6 57.3 -3.3Q57 -2.9 56.4 -2.9Z M93.2 0 89.8 -10.5H91.8L94.9 -1H93.9L97.1 -10.5H98.9L102 -1H101.1L104.2 -10.5H106.1L102.6 0H100.5L97.7 -8.6H98.2L95.3 0Z M115.4 0V-10.5H123.1V-8.9H117.4V-1.6H123.3V0ZM117.2 -4.5V-6.1H122.4V-4.5Z M133 0V-10.5H137.9Q139.8 -10.5 140.8 -9.8Q141.8 -9 141.8 -7.8Q141.8 -6.9 141.4 -6.3Q141 -5.7 140.3 -5.4Q139.7 -5.1 138.9 -5.1L139.2 -5.6Q140.1 -5.6 140.8 -5.3Q141.5 -5 141.9 -4.4Q142.3 -3.8 142.3 -2.9Q142.3 -1.5 141.3 -0.8Q140.2 0 138.2 0ZM134.9 -1.5H138.1Q139.2 -1.5 139.7 -1.9Q140.3 -2.3 140.3 -3Q140.3 -3.8 139.7 -4.2Q139.2 -4.6 138.1 -4.6H134.8V-6.1H137.7Q138.7 -6.1 139.2 -6.4Q139.8 -6.8 139.8 -7.5Q139.8 -8.2 139.2 -8.6Q138.7 -9 137.7 -9H134.9Z M175.9 -2.9Q175.4 -2.9 175 -3.3Q174.6 -3.6 174.6 -4.2Q174.6 -4.7 175 -5.1Q175.4 -5.4 175.9 -5.4Q176.4 -5.4 176.8 -5.1Q177.1 -4.7 177.1 -4.2Q177.1 -3.6 176.8 -3.3Q176.4 -2.9 175.9 -2.9Z M213.5 0.1Q212.2 0.1 211.1 -0.2Q210 -0.6 209.3 -1.1L210 -2.6Q210.6 -2.1 211.6 -1.8Q212.5 -1.5 213.5 -1.5Q214.3 -1.5 214.8 -1.6Q215.3 -1.8 215.5 -2.1Q215.8 -2.4 215.8 -2.8Q215.8 -3.3 215.4 -3.6Q215.1 -3.9 214.5 -4.1Q214 -4.2 213.3 -4.4Q212.7 -4.5 212 -4.7Q211.3 -4.9 210.8 -5.3Q210.2 -5.6 209.9 -6.1Q209.5 -6.7 209.5 -7.5Q209.5 -8.4 210 -9.1Q210.4 -9.8 211.4 -10.2Q212.3 -10.6 213.8 -10.6Q214.7 -10.6 215.6 -10.4Q216.6 -10.2 217.3 -9.7L216.6 -8.2Q215.9 -8.6 215.2 -8.8Q214.4 -9 213.7 -9Q212.9 -9 212.4 -8.8Q211.9 -8.6 211.7 -8.3Q211.5 -8 211.5 -7.6Q211.5 -7.1 211.8 -6.8Q212.1 -6.5 212.7 -6.4Q213.2 -6.2 213.9 -6.1Q214.6 -5.9 215.3 -5.7Q215.9 -5.5 216.5 -5.2Q217 -4.9 217.4 -4.3Q217.7 -3.8 217.7 -3Q217.7 -2.1 217.2 -1.4Q216.8 -0.7 215.8 -0.3Q214.9 0.1 213.5 0.1Z M232 0.1Q230.8 0.1 229.8 -0.3Q228.7 -0.7 228 -1.4Q227.2 -2.1 226.8 -3.1Q226.4 -4.1 226.4 -5.3Q226.4 -6.4 226.8 -7.4Q227.2 -8.4 228 -9.1Q228.8 -9.8 229.8 -10.2Q230.8 -10.6 232 -10.6Q233.3 -10.6 234.3 -10.2Q235.3 -9.8 236.1 -9.1Q236.8 -8.4 237.3 -7.4Q237.7 -6.4 237.7 -5.2Q237.7 -4.1 237.3 -3.1Q236.8 -2.1 236.1 -1.4Q235.3 -0.7 234.3 -0.3Q233.3 0.1 232 0.1ZM232 -1.6Q232.8 -1.6 233.5 -1.8Q234.2 -2.1 234.7 -2.6Q235.2 -3.1 235.5 -3.8Q235.7 -4.4 235.7 -5.3Q235.7 -6.1 235.5 -6.7Q235.2 -7.4 234.7 -7.9Q234.2 -8.4 233.5 -8.7Q232.8 -8.9 232 -8.9Q231.2 -8.9 230.6 -8.7Q229.9 -8.4 229.4 -7.9Q228.9 -7.4 228.6 -6.7Q228.3 -6.1 228.3 -5.3Q228.3 -4.5 228.6 -3.8Q228.9 -3.1 229.4 -2.6Q229.9 -2.1 230.6 -1.8Q231.2 -1.6 232 -1.6Z M247.3 0V-10.5H254.9V-8.9H249.2V0ZM249.1 -4V-5.7H254.3V-4Z M266.4 0V-8.9H263V-10.5H271.9V-8.9H268.4V0Z M283.3 0 279.8 -10.5H281.9L285 -1H284L287.2 -10.5H289L292.1 -1H291.2L294.3 -10.5H296.2L292.7 0H290.6L287.8 -8.6H288.3L285.4 0Z M304 0 308.7 -10.5H310.7L315.4 0H313.4L309.3 -9.5H310.1L306 0ZM306.2 -2.4 306.7 -4H312.4L312.9 -2.4Z M324.2 0V-10.5H328.5Q330.6 -10.5 331.8 -9.5Q333 -8.5 333 -6.8Q333 -5.6 332.5 -4.8Q332 -3.9 330.9 -3.5Q329.9 -3.1 328.6 -3.1H325.3L326.2 -3.9V0ZM331.1 0 328.4 -3.8H330.5L333.2 0ZM326.2 -3.7 325.3 -4.7H328.5Q329.8 -4.7 330.4 -5.2Q331.1 -5.8 331.1 -6.8Q331.1 -7.8 330.4 -8.3Q329.8 -8.9 328.5 -8.9H325.3L326.2 -9.8Z M342.7 0V-10.5H350.4V-8.9H344.7V-1.6H350.6V0ZM344.5 -4.5V-6.1H349.7V-4.5Z M386.8 0.1Q385.6 0.1 384.4 -0.2Q383.3 -0.6 382.6 -1.1L383.3 -2.6Q384 -2.1 384.9 -1.8Q385.8 -1.5 386.8 -1.5Q387.6 -1.5 388.1 -1.6Q388.6 -1.8 388.9 -2.1Q389.1 -2.4 389.1 -2.8Q389.1 -3.3 388.8 -3.6Q388.4 -3.9 387.9 -4.1Q387.3 -4.2 386.7 -4.4Q386 -4.5 385.3 -4.7Q384.7 -4.9 384.1 -5.3Q383.6 -5.6 383.2 -6.1Q382.9 -6.7 382.9 -7.5Q382.9 -8.4 383.3 -9.1Q383.8 -9.8 384.7 -10.2Q385.7 -10.6 387.1 -10.6Q388 -10.6 389 -10.4Q389.9 -10.2 390.6 -9.7L390 -8.2Q389.3 -8.6 388.5 -8.8Q387.8 -9 387.1 -9Q386.3 -9 385.8 -8.8Q385.3 -8.6 385 -8.3Q384.8 -8 384.8 -7.6Q384.8 -7.1 385.1 -6.8Q385.5 -6.5 386 -6.4Q386.6 -6.2 387.3 -6.1Q387.9 -5.9 388.6 -5.7Q389.3 -5.5 389.8 -5.2Q390.4 -4.9 390.7 -4.3Q391 -3.8 391 -3Q391 -2.1 390.6 -1.4Q390.1 -0.7 389.2 -0.3Q388.2 0.1 386.8 0.1Z M402.6 0V-8.9H399.1V-10.5H408V-8.9H404.5V0Z M421.5 0.1Q419.4 0.1 418.1 -1.1Q416.9 -2.3 416.9 -4.6V-10.5H418.9V-4.6Q418.9 -3 419.6 -2.3Q420.3 -1.6 421.5 -1.6Q422.8 -1.6 423.5 -2.3Q424.2 -3 424.2 -4.6V-10.5H426.1V-4.6Q426.1 -2.3 424.9 -1.1Q423.7 0.1 421.5 0.1Z M436.3 0V-10.5H440.9Q442.6 -10.5 443.9 -9.8Q445.2 -9.2 445.9 -8Q446.7 -6.8 446.7 -5.2Q446.7 -3.7 445.9 -2.5Q445.2 -1.3 443.9 -0.7Q442.6 0 440.9 0ZM438.3 -1.6H440.8Q442 -1.6 442.9 -2.1Q443.7 -2.5 444.2 -3.4Q444.7 -4.2 444.7 -5.2Q444.7 -6.3 444.2 -7.2Q443.7 -8 442.9 -8.4Q442 -8.9 440.8 -8.9H438.3Z M456.2 0V-10.5H458.2V0Z M473.4 0.1Q472.2 0.1 471.2 -0.3Q470.1 -0.7 469.4 -1.4Q468.6 -2.1 468.2 -3.1Q467.8 -4.1 467.8 -5.3Q467.8 -6.4 468.2 -7.4Q468.6 -8.4 469.4 -9.1Q470.1 -9.8 471.2 -10.2Q472.2 -10.6 473.4 -10.6Q474.6 -10.6 475.7 -10.2Q476.7 -9.8 477.5 -9.1Q478.2 -8.4 478.6 -7.4Q479.1 -6.4 479.1 -5.2Q479.1 -4.1 478.6 -3.1Q478.2 -2.1 477.5 -1.4Q476.7 -0.7 475.7 -0.3Q474.6 0.1 473.4 0.1ZM473.4 -1.6Q474.2 -1.6 474.9 -1.8Q475.6 -2.1 476.1 -2.6Q476.6 -3.1 476.8 -3.8Q477.1 -4.4 477.1 -5.3Q477.1 -6.1 476.8 -6.7Q476.6 -7.4 476.1 -7.9Q475.6 -8.4 474.9 -8.7Q474.2 -8.9 473.4 -8.9Q472.6 -8.9 472 -8.7Q471.3 -8.4 470.8 -7.9Q470.3 -7.4 470 -6.7Q469.7 -6.1 469.7 -5.3Q469.7 -4.5 470 -3.8Q470.3 -3.1 470.8 -2.6Q471.3 -2.1 471.9 -1.8Q472.6 -1.6 473.4 -1.6Z" fill="#EBD9A0" />
<path transform="translate(236.1 217)" d="M2.6 0 0.3 -7H1.6L3.7 -0.7H3L5.2 -7H6.4L8.5 -0.7H7.8L9.9 -7H11.2L8.8 0H7.5L5.6 -5.7H5.9L4 0Z M15.6 0V-7H20.7V-5.9H16.9V-1.1H20.8V0ZM16.8 -3V-4.1H20.3V-3Z M25.5 0V-7H28.8Q30 -7 30.7 -6.5Q31.3 -6 31.3 -5.2Q31.3 -4.6 31.1 -4.2Q30.8 -3.8 30.4 -3.6Q30 -3.4 29.4 -3.4L29.6 -3.8Q30.2 -3.8 30.7 -3.5Q31.2 -3.3 31.4 -2.9Q31.7 -2.5 31.7 -1.9Q31.7 -1 31 -0.5Q30.3 0 29 0ZM26.8 -1H28.9Q29.6 -1 30 -1.3Q30.4 -1.5 30.4 -2Q30.4 -2.5 30 -2.8Q29.6 -3 28.9 -3H26.7V-4H28.6Q29.3 -4 29.7 -4.3Q30 -4.5 30 -5Q30 -5.5 29.7 -5.7Q29.3 -6 28.6 -6H26.8Z M38.5 0.1Q37.6 0.1 36.9 -0.1Q36.1 -0.4 35.7 -0.7L36.2 -1.7Q36.6 -1.4 37.2 -1.2Q37.8 -1 38.5 -1Q39 -1 39.4 -1.1Q39.7 -1.2 39.8 -1.4Q40 -1.6 40 -1.9Q40 -2.2 39.8 -2.4Q39.6 -2.6 39.2 -2.7Q38.8 -2.8 38.4 -2.9Q37.9 -3 37.5 -3.2Q37 -3.3 36.7 -3.5Q36.3 -3.7 36.1 -4.1Q35.9 -4.4 35.9 -5Q35.9 -5.6 36.2 -6.1Q36.5 -6.5 37.1 -6.8Q37.7 -7.1 38.7 -7.1Q39.3 -7.1 39.9 -6.9Q40.5 -6.8 41 -6.5L40.6 -5.5Q40.1 -5.8 39.6 -5.9Q39.1 -6 38.7 -6Q38.1 -6 37.8 -5.9Q37.4 -5.8 37.3 -5.5Q37.1 -5.3 37.1 -5.1Q37.1 -4.7 37.4 -4.6Q37.6 -4.4 38 -4.3Q38.3 -4.1 38.8 -4Q39.2 -3.9 39.7 -3.8Q40.1 -3.7 40.5 -3.5Q40.8 -3.2 41.1 -2.9Q41.3 -2.5 41.3 -2Q41.3 -1.4 41 -0.9Q40.7 -0.5 40 -0.2Q39.4 0.1 38.5 0.1Z M45.8 0V-7H47.1V0Z M53.6 0V-5.9H51.3V-7H57.2V-5.9H54.9V0Z M61.4 0V-7H66.5V-5.9H62.7V-1.1H66.6V0ZM62.6 -3V-4.1H66.1V-3Z M73.5 0.1Q72.6 0.1 71.9 -0.1Q71.1 -0.4 70.7 -0.7L71.2 -1.7Q71.6 -1.4 72.2 -1.2Q72.8 -1 73.5 -1Q74 -1 74.4 -1.1Q74.7 -1.2 74.8 -1.4Q75 -1.6 75 -1.9Q75 -2.2 74.8 -2.4Q74.6 -2.6 74.2 -2.7Q73.8 -2.8 73.4 -2.9Q72.9 -3 72.5 -3.2Q72 -3.3 71.7 -3.5Q71.3 -3.7 71.1 -4.1Q70.9 -4.4 70.9 -5Q70.9 -5.6 71.2 -6.1Q71.5 -6.5 72.1 -6.8Q72.7 -7.1 73.7 -7.1Q74.3 -7.1 74.9 -6.9Q75.5 -6.8 76 -6.5L75.6 -5.5Q75.1 -5.8 74.6 -5.9Q74.1 -6 73.7 -6Q73.1 -6 72.8 -5.9Q72.4 -5.8 72.3 -5.5Q72.1 -5.3 72.1 -5.1Q72.1 -4.7 72.4 -4.6Q72.6 -4.4 73 -4.3Q73.3 -4.1 73.8 -4Q74.2 -3.9 74.7 -3.8Q75.1 -3.7 75.5 -3.5Q75.8 -3.2 76.1 -2.9Q76.3 -2.5 76.3 -2Q76.3 -1.4 76 -0.9Q75.7 -0.5 75 -0.2Q74.4 0.1 73.5 0.1Z M93.2 -1.9Q92.8 -1.9 92.6 -2.2Q92.4 -2.4 92.4 -2.8Q92.4 -3.2 92.6 -3.4Q92.8 -3.6 93.2 -3.6Q93.5 -3.6 93.8 -3.4Q94 -3.2 94 -2.8Q94 -2.4 93.8 -2.2Q93.5 -1.9 93.2 -1.9Z M109.7 0 112.8 -7H114.1L117.3 0H115.9L113.2 -6.3H113.7L111 0ZM111.1 -1.6 111.5 -2.6H115.2L115.6 -1.6Z M121.4 0V-7H122.7V0Z M133.7 0V-7H136.6Q137.5 -7 138.2 -6.7Q138.8 -6.4 139.2 -5.8Q139.6 -5.3 139.6 -4.5Q139.6 -3.7 139.2 -3.2Q138.8 -2.6 138.2 -2.3Q137.5 -2 136.6 -2H134.4L135 -2.6V0ZM135 -2.5 134.4 -3.1H136.5Q137.4 -3.1 137.8 -3.5Q138.3 -3.8 138.3 -4.5Q138.3 -5.2 137.8 -5.5Q137.4 -5.9 136.5 -5.9H134.4L135 -6.5Z M144.2 0V-7H145.5V-1.1H149.1V0Z M152.4 0 155.5 -7H156.8L159.9 0H158.6L155.9 -6.3H156.4L153.7 0ZM153.8 -1.6 154.2 -2.6H157.9L158.3 -1.6Z M165.5 0V-5.9H163.1V-7H169.1V-5.9H166.8V0Z M173.3 0V-7H178.4V-5.9H174.6V0ZM174.5 -2.7V-3.8H177.9V-2.7Z M186.1 0.1Q185.3 0.1 184.6 -0.2Q183.9 -0.4 183.4 -0.9Q182.9 -1.4 182.6 -2.1Q182.3 -2.7 182.3 -3.5Q182.3 -4.3 182.6 -4.9Q182.9 -5.6 183.4 -6.1Q183.9 -6.6 184.6 -6.8Q185.3 -7.1 186.1 -7.1Q186.9 -7.1 187.6 -6.8Q188.3 -6.6 188.8 -6.1Q189.3 -5.6 189.6 -4.9Q189.9 -4.3 189.9 -3.5Q189.9 -2.7 189.6 -2.1Q189.3 -1.4 188.8 -0.9Q188.3 -0.4 187.6 -0.2Q186.9 0.1 186.1 0.1ZM186.1 -1Q186.6 -1 187.1 -1.2Q187.5 -1.4 187.9 -1.7Q188.2 -2.1 188.4 -2.5Q188.6 -3 188.6 -3.5Q188.6 -4 188.4 -4.5Q188.2 -4.9 187.9 -5.3Q187.5 -5.6 187.1 -5.8Q186.6 -6 186.1 -6Q185.6 -6 185.1 -5.8Q184.7 -5.6 184.3 -5.3Q184 -4.9 183.8 -4.5Q183.6 -4 183.6 -3.5Q183.6 -3 183.8 -2.5Q184 -2.1 184.3 -1.7Q184.7 -1.4 185.1 -1.2Q185.6 -1 186.1 -1Z M194.5 0V-7H197.3Q198.7 -7 199.5 -6.3Q200.3 -5.7 200.3 -4.5Q200.3 -3.7 199.9 -3.2Q199.6 -2.6 198.9 -2.3Q198.3 -2 197.3 -2H195.2L195.8 -2.6V0ZM199 0 197.3 -2.5H198.6L200.4 0ZM195.8 -2.5 195.2 -3.1H197.3Q198.1 -3.1 198.6 -3.5Q199 -3.8 199 -4.5Q199 -5.2 198.6 -5.5Q198.1 -5.9 197.3 -5.9H195.2L195.8 -6.5Z M205 0V-7H206L209.1 -1.9H208.5L211.5 -7H212.6L212.6 0H211.4L211.4 -5.1H211.6L209.1 -0.8H208.5L205.9 -5.1H206.2V0Z M219.9 0.1Q219.1 0.1 218.3 -0.1Q217.6 -0.4 217.1 -0.7L217.6 -1.7Q218 -1.4 218.6 -1.2Q219.2 -1 219.9 -1Q220.4 -1 220.8 -1.1Q221.1 -1.2 221.3 -1.4Q221.4 -1.6 221.4 -1.9Q221.4 -2.2 221.2 -2.4Q221 -2.6 220.6 -2.7Q220.2 -2.8 219.8 -2.9Q219.4 -3 218.9 -3.2Q218.5 -3.3 218.1 -3.5Q217.7 -3.7 217.5 -4.1Q217.3 -4.4 217.3 -5Q217.3 -5.6 217.6 -6.1Q217.9 -6.5 218.5 -6.8Q219.1 -7.1 220.1 -7.1Q220.7 -7.1 221.3 -6.9Q222 -6.8 222.4 -6.5L222 -5.5Q221.5 -5.8 221 -5.9Q220.5 -6 220.1 -6Q219.5 -6 219.2 -5.9Q218.9 -5.8 218.7 -5.5Q218.6 -5.3 218.6 -5.1Q218.6 -4.7 218.8 -4.6Q219 -4.4 219.4 -4.3Q219.7 -4.1 220.2 -4Q220.6 -3.9 221.1 -3.8Q221.5 -3.7 221.9 -3.5Q222.3 -3.2 222.5 -2.9Q222.7 -2.5 222.7 -2Q222.7 -1.4 222.4 -0.9Q222.1 -0.5 221.5 -0.2Q220.8 0.1 219.9 0.1Z M239.6 -1.9Q239.3 -1.9 239 -2.2Q238.8 -2.4 238.8 -2.8Q238.8 -3.2 239 -3.4Q239.3 -3.6 239.6 -3.6Q240 -3.6 240.2 -3.4Q240.4 -3.2 240.4 -2.8Q240.4 -2.4 240.2 -2.2Q240 -1.9 239.6 -1.9Z M259.3 0.1Q258.4 0.1 257.7 -0.1Q256.9 -0.4 256.5 -0.7L256.9 -1.7Q257.4 -1.4 258 -1.2Q258.6 -1 259.3 -1Q259.8 -1 260.1 -1.1Q260.5 -1.2 260.6 -1.4Q260.8 -1.6 260.8 -1.9Q260.8 -2.2 260.6 -2.4Q260.3 -2.6 260 -2.7Q259.6 -2.8 259.2 -2.9Q258.7 -3 258.3 -3.2Q257.8 -3.3 257.5 -3.5Q257.1 -3.7 256.9 -4.1Q256.6 -4.4 256.6 -5Q256.6 -5.6 256.9 -6.1Q257.2 -6.5 257.9 -6.8Q258.5 -7.1 259.5 -7.1Q260.1 -7.1 260.7 -6.9Q261.3 -6.8 261.8 -6.5L261.4 -5.5Q260.9 -5.8 260.4 -5.9Q259.9 -6 259.4 -6Q258.9 -6 258.6 -5.9Q258.2 -5.8 258.1 -5.5Q257.9 -5.3 257.9 -5.1Q257.9 -4.7 258.2 -4.6Q258.4 -4.4 258.7 -4.3Q259.1 -4.1 259.6 -4Q260 -3.9 260.5 -3.8Q260.9 -3.7 261.3 -3.5Q261.6 -3.2 261.9 -2.9Q262.1 -2.5 262.1 -2Q262.1 -1.4 261.8 -0.9Q261.5 -0.5 260.8 -0.2Q260.2 0.1 259.3 0.1Z M265.6 0 268.7 -7H270L273.2 0H271.8L269.1 -6.3H269.6L266.9 0ZM267 -1.6 267.4 -2.6H271.2L271.5 -1.6Z M276.3 0 279.4 -7H280.7L283.9 0H282.5L279.8 -6.3H280.3L277.6 0ZM277.7 -1.6 278.1 -2.6H281.8L282.2 -1.6Z M290.1 0.1Q289.3 0.1 288.6 -0.1Q287.8 -0.4 287.4 -0.7L287.8 -1.7Q288.2 -1.4 288.9 -1.2Q289.5 -1 290.1 -1Q290.7 -1 291 -1.1Q291.3 -1.2 291.5 -1.4Q291.7 -1.6 291.7 -1.9Q291.7 -2.2 291.4 -2.4Q291.2 -2.6 290.8 -2.7Q290.5 -2.8 290 -2.9Q289.6 -3 289.1 -3.2Q288.7 -3.3 288.3 -3.5Q288 -3.7 287.7 -4.1Q287.5 -4.4 287.5 -5Q287.5 -5.6 287.8 -6.1Q288.1 -6.5 288.7 -6.8Q289.4 -7.1 290.3 -7.1Q291 -7.1 291.6 -6.9Q292.2 -6.8 292.7 -6.5L292.2 -5.5Q291.8 -5.8 291.3 -5.9Q290.8 -6 290.3 -6Q289.8 -6 289.4 -5.9Q289.1 -5.8 289 -5.5Q288.8 -5.3 288.8 -5.1Q288.8 -4.7 289 -4.6Q289.3 -4.4 289.6 -4.3Q290 -4.1 290.4 -4Q290.9 -3.9 291.3 -3.8Q291.8 -3.7 292.1 -3.5Q292.5 -3.2 292.7 -2.9Q293 -2.5 293 -2Q293 -1.4 292.6 -0.9Q292.3 -0.5 291.7 -0.2Q291.1 0.1 290.1 0.1Z M309.8 -1.9Q309.5 -1.9 309.3 -2.2Q309 -2.4 309 -2.8Q309 -3.2 309.3 -3.4Q309.5 -3.6 309.8 -3.6Q310.2 -3.6 310.4 -3.4Q310.7 -3.2 310.7 -2.8Q310.7 -2.4 310.4 -2.2Q310.2 -1.9 309.8 -1.9Z M326.3 0 329.5 -7H330.8L333.9 0H332.6L329.9 -6.3H330.4L327.7 0ZM327.8 -1.6 328.1 -2.6H331.9L332.3 -1.6Z M341 0.1Q339.6 0.1 338.8 -0.7Q338 -1.5 338 -3.1V-7H339.3V-3.1Q339.3 -2 339.7 -1.5Q340.2 -1 341 -1Q341.9 -1 342.3 -1.5Q342.8 -2 342.8 -3.1V-7H344.1V-3.1Q344.1 -1.5 343.3 -0.7Q342.5 0.1 341 0.1Z M350.5 0V-5.9H348.2V-7H354.1V-5.9H351.8V0Z M361.6 0.1Q360.8 0.1 360.1 -0.2Q359.4 -0.4 358.9 -0.9Q358.4 -1.4 358.1 -2.1Q357.8 -2.7 357.8 -3.5Q357.8 -4.3 358.1 -4.9Q358.4 -5.6 358.9 -6.1Q359.4 -6.6 360.1 -6.8Q360.8 -7.1 361.6 -7.1Q362.4 -7.1 363.1 -6.8Q363.8 -6.6 364.3 -6.1Q364.8 -5.6 365.1 -4.9Q365.4 -4.3 365.4 -3.5Q365.4 -2.7 365.1 -2.1Q364.8 -1.4 364.3 -0.9Q363.8 -0.4 363.1 -0.2Q362.4 0.1 361.6 0.1ZM361.6 -1Q362.1 -1 362.6 -1.2Q363 -1.4 363.3 -1.7Q363.7 -2.1 363.9 -2.5Q364.1 -3 364.1 -3.5Q364.1 -4 363.9 -4.5Q363.7 -4.9 363.4 -5.3Q363 -5.6 362.6 -5.8Q362.1 -6 361.6 -6Q361.1 -6 360.6 -5.8Q360.2 -5.6 359.8 -5.3Q359.5 -4.9 359.3 -4.5Q359.1 -4 359.1 -3.5Q359.1 -3 359.3 -2.5Q359.5 -2.1 359.8 -1.7Q360.2 -1.4 360.6 -1.2Q361.1 -1 361.6 -1Z M369.9 0V-7H371L374.1 -1.9H373.5L376.5 -7H377.6L377.6 0H376.4L376.4 -5.1H376.6L374.1 -0.8H373.5L370.9 -5.1H371.2V0Z M381.7 0 384.8 -7H386.1L389.3 0H387.9L385.2 -6.3H385.7L383 0ZM383.2 -1.6 383.5 -2.6H387.3L387.6 -1.6Z M394.8 0V-5.9H392.5V-7H398.4V-5.9H396.1V0Z M402.6 0V-7H403.9V0Z M412.3 0.1Q411.5 0.1 410.8 -0.2Q410.1 -0.4 409.6 -0.9Q409.1 -1.4 408.8 -2.1Q408.5 -2.7 408.5 -3.5Q408.5 -4.3 408.8 -4.9Q409.1 -5.6 409.6 -6.1Q410.1 -6.6 410.8 -6.8Q411.4 -7.1 412.3 -7.1Q413.1 -7.1 413.8 -6.8Q414.5 -6.6 415 -6.1Q415.5 -5.6 415.7 -4.9Q416 -4.3 416 -3.5Q416 -2.7 415.7 -2.1Q415.5 -1.4 415 -0.9Q414.5 -0.4 413.8 -0.2Q413.1 0.1 412.3 0.1ZM412.3 -1Q412.8 -1 413.2 -1.2Q413.7 -1.4 414 -1.7Q414.4 -2.1 414.5 -2.5Q414.7 -3 414.7 -3.5Q414.7 -4 414.5 -4.5Q414.4 -4.9 414 -5.3Q413.7 -5.6 413.2 -5.8Q412.8 -6 412.3 -6Q411.7 -6 411.3 -5.8Q410.8 -5.6 410.5 -5.3Q410.2 -4.9 410 -4.5Q409.8 -4 409.8 -3.5Q409.8 -3 410 -2.5Q410.2 -2.1 410.5 -1.7Q410.8 -1.4 411.3 -1.2Q411.7 -1 412.3 -1Z M420.6 0V-7H421.7L426.1 -1.6H425.5V-7H426.8V0H425.8L421.4 -5.4H421.9V0Z" fill="#8f8878" />
</svg>